<svg width="205" height="205" viewBox="0 0 205 205" fill="none" xmlns="http://www.w3.org/2000/svg">
<path fill-rule="evenodd" clip-rule="evenodd" d="M61.6051 109.99L145.361 139.393C147.391 140.114 147.653 137.691 148.243 139.393C148.308 139.655 149.487 143.781 149.552 144.043C149.749 145.484 149.487 147.121 148.57 148.692L128.27 181.894C126.043 185.626 120.87 187.591 116.81 186.216L33.1188 156.747C31.2197 156.092 29.91 154.848 29.2552 153.276C29.1242 152.949 28.0764 149.216 28.0109 148.889C27.6835 147.383 29.779 147.186 30.7613 145.549L50.2106 114.247C52.5026 110.514 57.6105 108.55 61.6051 109.99Z" fill="url(#paint0_linear_2_12)" stroke="black" stroke-width="1.09807" stroke-linejoin="bevel"/>
<path fill-rule="evenodd" clip-rule="evenodd" d="M61.6051 109.991L66.3201 111.562L122.965 186.085C121.001 186.74 118.774 186.871 116.81 186.216L33.1188 156.747C31.2197 156.092 29.91 154.848 29.2552 153.277C29.1242 152.949 28.0764 149.216 28.0109 148.889C27.6835 147.383 29.779 147.186 30.7613 145.549L50.2106 114.247C52.5026 110.514 57.6105 108.615 61.6051 109.991Z" fill="black" stroke="black" stroke-width="1.13182" stroke-linejoin="round"/>
<path fill-rule="evenodd" clip-rule="evenodd" d="M60.4925 106.061L144.183 135.464C148.243 136.905 149.684 141.031 147.392 144.763L127.157 178.03C124.865 181.697 119.757 183.662 115.697 182.287L32.0062 152.884C28.0116 151.443 26.5709 147.317 28.7974 143.585L49.0325 110.318C51.3245 106.585 56.4978 104.621 60.4925 106.061Z" fill="#55DB9C" stroke="black" stroke-width="1.13182" stroke-linejoin="round"/>
<path fill-rule="evenodd" clip-rule="evenodd" d="M61.7341 104.293L145.425 133.696C147.455 134.417 147.782 131.994 148.306 133.696C148.437 134.024 149.55 138.084 149.616 138.346C149.878 139.787 149.55 141.424 148.634 142.995L128.399 176.262C126.107 179.929 120.933 181.894 116.939 180.519L33.2478 151.116C31.3487 150.395 29.9735 149.151 29.3842 147.579C29.2532 147.252 28.1399 143.519 28.0745 143.192C27.747 141.686 29.9081 141.489 30.8903 139.852L50.2741 108.55C52.5661 104.817 57.7395 102.853 61.7341 104.293Z" fill="url(#paint1_linear_2_12)" stroke="black" stroke-width="1.09807" stroke-linejoin="bevel"/>
<path fill-rule="evenodd" clip-rule="evenodd" d="M61.7341 104.293L66.3836 105.865L123.094 180.388C121.064 181.043 118.903 181.173 116.939 180.519L33.2478 151.116C31.3487 150.395 29.9735 149.151 29.3842 147.579C29.2532 147.252 28.1399 143.519 28.0745 143.192C27.747 141.686 29.9081 141.489 30.8903 139.852L50.2741 108.55C52.5661 104.817 57.7395 102.918 61.7341 104.293Z" fill="black" stroke="black" stroke-width="1.13182" stroke-linejoin="round"/>
<path fill-rule="evenodd" clip-rule="evenodd" d="M60.6232 100.364L144.314 129.767C148.309 131.208 149.815 135.333 147.523 139.066L127.288 172.333C124.996 176.065 119.822 177.964 115.828 176.589L32.1369 147.186C28.0768 145.745 26.6361 141.62 28.9281 137.887L49.1632 104.62C51.4552 100.888 56.6285 98.9232 60.6232 100.364Z" fill="#55DB9C" stroke="black" stroke-width="1.13182" stroke-linejoin="round"/>
<path fill-rule="evenodd" clip-rule="evenodd" d="M58.9225 97.7447L142.613 127.148C144.643 127.868 144.905 125.445 145.495 127.148C145.56 127.41 146.739 131.535 146.804 131.797C147.066 133.238 146.739 134.875 145.822 136.447L125.521 169.648C123.295 173.381 118.122 175.345 114.061 173.905L30.3707 144.502C28.4717 143.847 27.1619 142.602 26.5071 141.031C26.3761 140.703 25.3283 136.971 25.2629 136.643C24.9354 135.137 27.031 134.941 28.0787 133.303L47.4625 102.001C49.7545 98.2686 54.8624 96.304 58.9225 97.7447Z" fill="url(#paint2_linear_2_12)" stroke="black" stroke-width="1.09807" stroke-linejoin="bevel"/>
<path fill-rule="evenodd" clip-rule="evenodd" d="M58.9225 97.7447L63.572 99.3163L120.217 173.839C118.253 174.494 116.026 174.625 114.061 173.905L30.3707 144.501C28.4717 143.847 27.1619 142.602 26.5071 141.031C26.3761 140.703 25.3283 136.971 25.2629 136.643C24.9354 135.137 27.031 134.941 28.0787 133.303L47.4625 102.001C49.7545 98.2686 54.8624 96.3695 58.9225 97.7447Z" fill="black" stroke="black" stroke-width="1.13182" stroke-linejoin="round"/>
<path fill-rule="evenodd" clip-rule="evenodd" d="M57.7425 93.8155L141.433 123.219C145.493 124.594 146.934 128.785 144.642 132.518L124.407 165.784C122.18 169.452 117.007 171.416 112.947 170.041L29.2562 140.572C25.2616 139.197 23.8209 135.072 26.0474 131.339L46.2825 98.0721C48.5745 94.3394 53.7478 92.3748 57.7425 93.8155Z" fill="#55DB9C" stroke="black" stroke-width="1.13182" stroke-linejoin="round"/>
<path fill-rule="evenodd" clip-rule="evenodd" d="M61.4091 98.7925L129.514 122.76C127.353 128.327 130.235 134.155 136.39 136.185C136.718 136.316 136.98 136.381 137.307 136.512L124.341 157.861C117.923 155.896 110.523 158.843 107.642 164.54C107.577 164.606 107.577 164.671 107.511 164.737L39.8643 140.9C40.0608 140.638 40.2572 140.31 40.3882 139.983C43.335 134.22 40.4537 127.803 34.1016 125.576L46.02 105.996C52.0446 107.175 58.6587 104.228 61.3436 98.9235C61.3436 98.858 61.4091 98.858 61.4091 98.7925Z" fill="#55DB9C" stroke="black" stroke-width="1.13182" stroke-linejoin="round"/>
<path fill-rule="evenodd" clip-rule="evenodd" d="M87.3424 104.228L109.149 111.955L82.2345 159.039L60.4277 151.312L87.3424 104.228Z" fill="#F7F7F7" stroke="black" stroke-width="1.13182" stroke-linejoin="round"/>
<path fill-rule="evenodd" clip-rule="evenodd" d="M66.8453 168.469L88.6521 176.197L82.2345 159.039L60.4277 151.312L66.8453 168.469Z" fill="url(#paint3_linear_2_12)" stroke="black" stroke-width="1.1353"/>
<defs>
<linearGradient id="paint0_linear_2_12" x1="76.1253" y1="153.901" x2="134.893" y2="108.867" gradientUnits="userSpaceOnUse">
<stop stop-color="#0094FF"/>
<stop offset="1" stop-color="#70CF42"/>
</linearGradient>
<linearGradient id="paint1_linear_2_12" x1="76.1997" y1="148.204" x2="134.971" y2="103.159" gradientUnits="userSpaceOnUse">
<stop stop-color="#0094FF"/>
<stop offset="1" stop-color="#70CF42"/>
</linearGradient>
<linearGradient id="paint2_linear_2_12" x1="73.3875" y1="141.637" x2="132.141" y2="96.5866" gradientUnits="userSpaceOnUse">
<stop stop-color="#0094FF"/>
<stop offset="1" stop-color="#70CF42"/>
</linearGradient>
<linearGradient id="paint3_linear_2_12" x1="74.5399" y1="151.312" x2="74.5399" y2="176.197" gradientUnits="userSpaceOnUse">
<stop stop-color="#F7F7F7"/>
<stop offset="1" stop-color="#EBCD81"/>
</linearGradient>
</defs>
</svg>
