<svg width="205" height="205" viewBox="0 0 205 205" fill="none" xmlns="http://www.w3.org/2000/svg">
<path fill-rule="evenodd" clip-rule="evenodd" d="M131.424 34.2202C134.511 37.5703 137.664 40.5262 140.226 44.2047C144.167 50.7077 145.218 56.4882 144.627 63.9765C142.788 78.9532 133.526 91.4994 118.878 98.9878C105.675 105.031 91.6834 105.425 80.3195 96.2946L79.1372 95.2436L73.291 89.0033L74.4734 90.0543C86.3628 99.6446 101.208 98.7907 114.74 91.8935C125.053 86.0474 131.687 78.5591 136.088 68.3119C138.912 60.8892 139.701 54.7803 138.124 47.0949C137.073 42.9566 135.891 40.2634 133.395 36.7163L132.475 35.4026L131.424 34.2202Z" fill="url(#paint0_linear_2_5)" stroke="black" stroke-width="1.09807" stroke-linejoin="bevel"/>
<path fill-rule="evenodd" clip-rule="evenodd" d="M114.411 100.893C102.785 104.768 90.1726 104.177 80.3195 96.2947L79.1372 95.2437L73.291 89.0034L74.4734 90.0544C84.5235 98.1339 96.7413 98.7908 108.434 94.5868L114.411 100.893Z" fill="black" stroke="black" stroke-width="1.1353" stroke-linejoin="bevel"/>
<path fill-rule="evenodd" clip-rule="evenodd" d="M99.7639 26.075C120.258 21.2798 137.731 32.9721 138.848 52.2841C140.03 71.5962 124.331 91.1709 103.836 96.0318C83.3421 100.893 65.8036 89.1346 64.6869 69.8226C63.5702 50.5106 79.2695 30.9358 99.7639 26.075Z" fill="#FFD731" stroke="black" stroke-width="1.1353"/>
<path fill-rule="evenodd" clip-rule="evenodd" d="M99.8957 28.7025C118.879 24.17 135.104 35.0741 136.155 52.941C137.206 70.8079 122.623 89.0033 103.64 93.47C84.6563 97.9367 68.4315 87.0983 67.4462 69.1657C66.3952 51.2988 80.9121 33.1692 99.8957 28.7025Z" fill="#FFD731" stroke="black" stroke-width="1.1353"/>
<defs>
<linearGradient id="paint0_linear_2_5" x1="101.589" y1="74.0047" x2="145.36" y2="52.0117" gradientUnits="userSpaceOnUse">
<stop stop-color="#4B9D54"/>
<stop offset="1" stop-color="#FFD731"/>
</linearGradient>
</defs>
</svg>
